<?xml version="1.0" encoding="utf-8"?>
<!-- Generator: Adobe Illustrator 16.0.0, SVG Export Plug-In . SVG Version: 6.00 Build 0)  -->
<!DOCTYPE svg PUBLIC "-//W3C//DTD SVG 1.1//EN" "http://www.w3.org/Graphics/SVG/1.1/DTD/svg11.dtd">
<svg version="1.1" id="Layer_1" xmlns="http://www.w3.org/2000/svg" xmlns:xlink="http://www.w3.org/1999/xlink" x="0px" y="0px"
	 width="795.455px" height="186.364px" viewBox="0 0 795.455 186.364" enable-background="new 0 0 795.455 186.364"
	 xml:space="preserve">
<g>
	<path fill="#FFFFFF" d="M20.52,102.523c1.08,1.921,2.489,3.842,4.23,5.76c1.738,1.921,3.78,3.689,6.12,5.311
		c2.34,1.619,5.009,2.941,8.01,3.959c2.998,1.021,6.3,1.531,9.9,1.531c6.84,0,12.24-1.621,16.2-4.861
		c3.96-3.239,5.94-7.138,5.94-11.699c0-2.16-0.692-4.078-2.07-5.76c-1.381-1.68-3.181-3.179-5.4-4.5
		c-2.222-1.319-4.801-2.521-7.74-3.601c-2.942-1.08-5.971-2.16-9.09-3.24c-4.68-1.44-9.332-3.088-13.95-4.95
		c-4.621-1.859-8.792-4.199-12.51-7.02c-3.721-2.818-6.75-6.3-9.09-10.44c-2.34-4.14-3.51-9.208-3.51-15.21
		c0-5.518,1.17-10.558,3.51-15.12c2.34-4.559,5.698-8.46,10.08-11.7c4.379-3.24,9.658-5.76,15.84-7.56
		c6.179-1.8,13.109-2.7,20.79-2.7c6.958,0,13.559,0.99,19.8,2.97c6.238,1.98,12.6,5.071,19.08,9.27
		c-2.281,3.721-4.171,7.262-5.67,10.62c-1.502,3.361-2.79,7.2-3.87,11.52h-11.7c-0.72-1.44-1.62-3.06-2.7-4.86
		c-1.08-1.8-2.402-3.448-3.96-4.95c-1.561-1.499-3.42-2.759-5.58-3.78c-2.16-1.018-4.621-1.53-7.38-1.53
		c-5.642,0-10.291,1.232-13.95,3.69c-3.662,2.461-5.49,5.67-5.49,9.63c0,2.402,0.72,4.472,2.16,6.21
		c1.44,1.741,3.33,3.271,5.67,4.59c2.34,1.322,5.009,2.492,8.01,3.51c2.998,1.021,6.12,2.07,9.36,3.15
		c4.68,1.44,9.298,3.032,13.86,4.77c4.559,1.741,8.64,3.901,12.24,6.48c3.6,2.582,6.508,5.822,8.73,9.72
		c2.219,3.901,3.33,8.792,3.33,14.67c0,5.76-1.26,11.25-3.78,16.47c-2.52,5.221-6.182,9.782-10.98,13.68
		c-4.801,3.901-10.651,6.992-17.55,9.271c-6.902,2.278-14.732,3.42-23.49,3.42c-9.242,0-17.252-1.44-24.03-4.319
		c-6.781-2.881-12.69-5.94-17.73-9.181c1.08-2.278,1.949-4.319,2.61-6.12c0.658-1.8,1.229-3.568,1.71-5.31
		c0.478-1.738,0.869-3.538,1.17-5.4c0.298-1.858,0.568-3.987,0.81-6.39H20.52z"/>
	<path fill="#FFFFFF" d="M109.618,19.183c0-2.399,0.83-4.41,2.492-6.03s3.623-2.43,5.878-2.43c2.255,0,4.213,0.81,5.875,2.43
		s2.495,3.631,2.495,6.03c0,2.281-0.833,4.23-2.495,5.85s-3.62,2.43-5.875,2.43c-2.256,0-4.216-0.81-5.878-2.43
		S109.618,21.464,109.618,19.183z M112.317,85.063c0-5.4-0.09-10.98-0.27-16.74c-0.18-5.76-0.571-11.219-1.17-16.38
		c1.302,0.242,2.486,0.422,3.555,0.54c1.066,0.121,2.25,0.18,3.555,0.18c1.302,0,2.486-0.059,3.555-0.18
		c1.066-0.118,2.25-0.298,3.555-0.54c-0.526,5.161-0.866,10.62-1.024,16.38c-0.157,5.76-0.236,11.34-0.236,16.74v18.899
		c0,5.4,0.079,10.98,0.236,16.74c0.158,5.76,0.498,11.223,1.024,16.381c-1.305-0.242-2.489-0.422-3.555-0.541
		c-1.069-0.121-2.253-0.18-3.555-0.18c-1.305,0-2.489,0.059-3.555,0.18c-1.069,0.119-2.253,0.299-3.555,0.541
		c0.599-5.158,0.99-10.621,1.17-16.381c0.18-5.76,0.27-11.34,0.27-16.74V85.063z"/>
	<path fill="#FFFFFF" d="M141.297,85.035c0-5.4-0.09-10.983-0.27-16.749c-0.18-5.763-0.512-11.225-0.99-16.388
		c1.198,0.242,2.368,0.422,3.51,0.54c1.139,0.121,2.368,0.18,3.69,0.18c0.838,0,1.769-0.059,2.79-0.18
		c1.018-0.118,2.129-0.298,3.33-0.54c-0.242,2.528-0.36,5.327-0.36,8.393c0,3.068,0,5.867,0,8.392
		c7.799-12.479,17.28-18.72,28.44-18.72c2.998,0,5.909,0.481,8.73,1.44c2.818,0.962,5.4,2.312,7.74,4.05
		c2.34,1.741,4.348,3.811,6.03,6.21c1.679,2.402,2.88,5.04,3.6,7.92c3.479-6.359,7.768-11.219,12.87-14.58
		c5.099-3.358,10.89-5.04,17.37-5.04c3.839,0,7.408,0.54,10.71,1.62c3.299,1.08,6.148,2.731,8.55,4.95
		c2.399,2.222,4.289,5.102,5.67,8.64c1.378,3.541,2.07,7.771,2.07,12.69c0,1.682-0.031,3.451-0.09,5.31
		c-0.062,1.862-0.152,3.811-0.27,5.85c-0.242,3.482-0.422,7.561-0.54,12.24c-0.121,4.68-0.18,10.381-0.18,17.1c0,3.122,0,6.12,0,9
		s0.118,6.061,0.36,9.54c-2.042-0.36-4.32-0.54-6.84-0.54c-2.402,0-4.68,0.18-6.84,0.54c0.36-3.848,0.72-10.345,1.08-19.485
		c0.36-9.141,0.54-21.467,0.54-36.984c0-3.246-0.332-6.25-0.99-9.017c-0.661-2.768-1.772-5.172-3.33-7.217
		c-1.561-2.045-3.631-3.667-6.21-4.871c-2.582-1.204-5.791-1.806-9.63-1.806c-4.562,0-8.432,0.872-11.61,2.615
		c-3.181,1.744-5.611,3.82-7.29,6.224c-0.962,1.446-1.741,2.858-2.34,4.241c-0.602,1.384-1.08,3.457-1.44,6.224
		c-0.36,2.768-0.602,6.646-0.72,11.635c-0.121,4.992-0.18,11.877-0.18,20.658c0,5.052,0.118,9.652,0.36,13.801
		c0.239,4.152,0.479,8.871,0.72,14.162c-1.322-0.242-2.551-0.422-3.69-0.541c-1.142-0.121-2.312-0.18-3.51-0.18
		c-1.201,0-2.34,0.059-3.42,0.18c-1.08,0.119-2.281,0.299-3.6,0.541c0.599-6.615,1.018-13.38,1.26-20.296
		c0.239-6.915,0.36-13.62,0.36-20.118c0-5.65-0.031-10.13-0.09-13.438c-0.062-3.308-0.211-5.951-0.45-7.937
		c-0.242-1.985-0.602-3.578-1.08-4.781c-0.481-1.204-1.142-2.587-1.98-4.151c-1.322-2.404-3.482-4.48-6.48-6.224
		c-3.001-1.744-6.12-2.615-9.36-2.615c-8.162,0-14.251,2.708-18.27,8.12c-4.022,5.411-6.03,12.988-6.03,22.73v15.513
		c0,5.414,0.09,11.009,0.27,16.779c0.18,5.775,0.509,11.248,0.99,16.418c-1.201-0.242-2.34-0.422-3.42-0.541
		c-1.08-0.121-2.281-0.18-3.6-0.18c-1.322,0-2.551,0.059-3.69,0.18c-1.142,0.119-2.312,0.299-3.51,0.541
		c0.478-5.162,0.81-10.623,0.99-16.389c0.18-5.764,0.27-11.346,0.27-16.749V85.035z"/>
	<path fill="#FFFFFF" d="M281.336,103.926c0-4.081-0.031-8.463-0.09-13.146c-0.062-4.68-0.121-9.363-0.18-14.046
		c-0.062-4.68-0.18-9.183-0.36-13.505c-0.18-4.32-0.391-8.103-0.63-11.346c1.198,0.236,2.34,0.416,3.42,0.534
		c1.08,0.121,2.278,0.18,3.6,0.18c2.638,0,5.04-0.18,7.2-0.54c-0.36,3.001-0.661,5.822-0.9,8.46c-0.242,2.641-0.36,5.521-0.36,8.64
		l1.44,0.36c0.959-1.918,2.25-4.019,3.87-6.3c1.62-2.278,3.659-4.41,6.12-6.39c2.458-1.98,5.369-3.617,8.73-4.917
		c3.358-1.299,7.318-1.949,11.88-1.949c4.559,0,9,0.841,13.32,2.52c4.32,1.682,8.19,4.32,11.61,7.92s6.179,8.19,8.28,13.77
		c2.098,5.58,3.15,12.212,3.15,19.89c0,7.56-1.111,14.161-3.33,19.8c-2.222,5.643-5.161,10.322-8.82,14.04
		c-3.662,3.721-7.802,6.511-12.42,8.37c-4.621,1.859-9.27,2.79-13.95,2.79c-6.601,0-12.24-1.502-16.92-4.5
		c-4.68-2.999-8.401-7.38-11.16-13.14l-1.44,0.359l-0.36,11.88c0,4.078,0.028,8.46,0.09,13.14c0.059,4.681,0.118,9.33,0.18,13.951
		c0.059,4.617,0.18,9.059,0.36,13.319c0.18,4.257,0.388,7.948,0.63,11.069c-1.201-0.242-2.371-0.422-3.51-0.539
		c-1.142-0.121-2.371-0.182-3.69-0.182c-1.322,0-2.52,0.061-3.6,0.182c-1.08,0.117-2.222,0.297-3.42,0.539
		c0.239-3.004,0.45-6.604,0.63-10.805c0.18-4.202,0.298-8.615,0.36-13.236c0.059-4.623,0.118-9.303,0.18-14.045
		c0.059-4.742,0.09-9.214,0.09-13.416V103.926z M347.216,93.791c0-7.578-0.782-13.801-2.34-18.673
		c-1.561-4.871-3.6-8.75-6.12-11.635s-5.341-4.902-8.46-6.044c-3.122-1.142-6.182-1.716-9.18-1.716
		c-5.161,0-9.512,1.055-13.05,3.159c-3.541,2.104-6.421,4.93-8.64,8.479c-2.222,3.549-3.842,7.729-4.86,12.538
		c-1.021,4.813-1.53,9.923-1.53,15.334c0,12.87,2.34,22.585,7.02,29.138c4.68,6.556,11.52,9.832,20.52,9.832
		c4.438,0,8.339-1.052,11.7-3.155c3.358-2.104,6.148-4.962,8.37-8.569c2.219-3.609,3.87-7.879,4.95-12.812
		C346.676,104.736,347.216,99.443,347.216,93.791z"/>
	<path fill="#FFFFFF" d="M372.595,52.483c0-4.078-0.031-8.46-0.09-13.14c-0.062-4.68-0.152-9.329-0.27-13.95
		c-0.121-4.618-0.27-9.059-0.45-13.32c-0.18-4.258-0.391-7.948-0.63-11.07c1.302,0.242,2.486,0.422,3.555,0.54
		c1.066,0.121,2.25,0.18,3.554,0.18c1.303,0,2.486-0.059,3.556-0.18c1.065-0.118,2.25-0.298,3.555-0.54
		c-0.36,3.122-0.63,6.75-0.81,10.89c-0.18,4.14-0.301,8.522-0.36,13.14c-0.062,4.621-0.12,9.301-0.18,14.04
		c-0.062,4.742-0.091,9.211-0.091,13.41v33.12c0,4.081,0.029,8.46,0.091,13.14c0.06,4.681,0.149,9.332,0.271,13.95
		c0.117,4.621,0.27,9.063,0.449,13.32c0.18,4.261,0.389,7.951,0.63,11.07c-1.305-0.242-2.489-0.422-3.555-0.541
		c-1.069-0.121-2.253-0.18-3.556-0.18c-1.304,0-2.488,0.059-3.554,0.18c-1.069,0.119-2.253,0.299-3.555,0.541
		c0.36-2.999,0.63-6.599,0.81-10.801c0.18-4.199,0.298-8.609,0.36-13.23c0.059-4.617,0.118-9.297,0.18-14.039
		c0.059-4.739,0.09-9.208,0.09-13.41V52.483z"/>
	<path fill="#FFFFFF" d="M399.413,97.123c0-14.518,3.511-26.01,10.531-34.47c7.02-8.46,17.127-12.69,30.33-12.69
		c6.237,0,11.668,0.962,16.289,2.88c4.619,1.921,8.46,4.531,11.521,7.83c3.061,3.302,5.338,7.172,6.84,11.61
		c1.5,4.441,2.25,9.121,2.25,14.04c0,0.962,0,1.98,0,3.06s-0.063,2.16-0.18,3.24c-1.682,0-3.811-0.027-6.391-0.09
		c-2.582-0.059-4.652-0.09-6.209-0.09c-8.641-0.359-17.222-0.54-25.741-0.54c-2.401,0-5.039,0.03-7.92,0.09
		c-2.879,0.062-5.521,0.211-7.92,0.45c-1.322,0-2.82,0.031-4.5,0.09c-1.682,0.063-3.181,0.09-4.5,0.09
		c-0.121,0.962-0.18,1.952-0.18,2.971c0,1.021,0,2.01,0,2.97c0,4.922,0.721,9.481,2.16,13.68c1.439,4.202,3.538,7.86,6.3,10.979
		c2.759,3.123,6.147,5.58,10.17,7.381c4.019,1.8,8.669,2.699,13.95,2.699c4.798,0,9.689-1.197,14.67-3.6
		c4.978-2.398,9.149-5.338,12.511-8.82c-0.242,1.322-0.393,2.551-0.451,3.69c-0.061,1.142-0.211,2.371-0.449,3.69
		c-3.6,2.879-8.072,5.399-13.41,7.56c-5.341,2.16-10.772,3.24-16.29,3.24c-6.48,0-12.361-1.08-17.641-3.24
		c-5.281-2.16-9.84-5.099-13.68-8.819c-3.842-3.719-6.812-8.129-8.91-13.23C400.463,108.673,399.413,103.125,399.413,97.123z
		 M440.634,53.923c-4.563,0-8.46,1.08-11.7,3.24c-3.239,2.16-5.911,4.922-8.01,8.28c-2.101,3.361-3.69,6.992-4.771,10.89
		c-1.08,3.901-1.74,7.591-1.979,11.07c0.959,0,2.31,0.031,4.05,0.09c1.738,0.062,3.088,0.09,4.051,0.09
		c2.758,0.121,5.549,0.211,8.369,0.27c2.818,0.062,5.549,0.09,8.19,0.09c2.399,0,5.188-0.028,8.37-0.09
		c3.178-0.059,6.029-0.149,8.55-0.27c1.319,0,2.728-0.028,4.229-0.09c1.5-0.059,2.849-0.09,4.05-0.09
		c0-3.358-0.301-7.02-0.898-10.98c-0.604-3.96-1.741-7.588-3.421-10.89c-1.682-3.299-4.051-6.058-7.109-8.28
		C449.544,55.034,445.553,53.923,440.634,53.923z M473.395,120.882c0-0.238,0.027-0.418,0.09-0.539
		c0.059-0.119,0.09-0.299,0.09-0.541l0.18,0.9h-0.18L473.395,120.882z"/>
	<path fill="#FFFFFF" d="M498.592,106.483c0.959,2.042,2.16,4.081,3.6,6.12c1.44,2.041,3.15,3.9,5.13,5.58
		c1.98,1.682,4.23,3.06,6.75,4.14c2.521,1.08,5.339,1.62,8.46,1.62c6.12,0,10.949-1.949,14.49-5.85
		c3.538-3.898,5.311-8.668,5.311-14.311c0-2.88-0.603-5.369-1.801-7.47c-1.2-2.099-2.79-3.929-4.77-5.49
		c-1.98-1.558-4.261-2.939-6.84-4.14c-2.582-1.198-5.251-2.34-8.01-3.42c-3.843-1.558-7.622-3.24-11.341-5.04
		c-3.721-1.8-7.081-4.05-10.08-6.75c-3.001-2.7-5.431-6.03-7.29-9.99c-1.861-3.96-2.789-8.879-2.789-14.76
		c0-5.279,0.959-10.139,2.88-14.58c1.918-4.438,4.648-8.249,8.189-11.43c3.538-3.178,7.799-5.639,12.78-7.38
		c4.979-1.738,10.589-2.61,16.83-2.61c5.878,0,11.25,0.872,16.109,2.61c4.86,1.741,9.568,4.531,14.131,8.37
		c-1.562,3.001-2.821,5.94-3.78,8.82c-0.962,2.88-1.921,6.421-2.88,10.62h-8.101c-0.602-1.558-1.35-3.268-2.25-5.13
		c-0.899-1.859-2.042-3.569-3.42-5.13c-1.381-1.558-3.001-2.88-4.859-3.96c-1.862-1.08-4.051-1.62-6.57-1.62
		c-5.04,0-9.242,1.53-12.6,4.59c-3.361,3.06-5.04,7.051-5.04,11.97c0,3.122,0.63,5.76,1.89,7.92s2.939,4.022,5.04,5.58
		c2.098,1.561,4.469,2.942,7.11,4.14c2.638,1.201,5.399,2.34,8.279,3.42c3.719,1.561,7.408,3.181,11.07,4.86
		c3.659,1.682,6.93,3.811,9.81,6.39c2.881,2.582,5.221,5.701,7.021,9.36c1.8,3.662,2.7,8.252,2.7,13.77
		c0,5.761-1.021,11.191-3.061,16.291c-2.042,5.102-5.012,9.57-8.91,13.41c-3.9,3.842-8.64,6.87-14.22,9.09
		c-5.58,2.219-11.97,3.33-19.17,3.33c-7.681,0-14.102-1.291-19.26-3.871c-5.161-2.578-9.661-5.369-13.5-8.369
		c0.72-1.801,1.288-3.479,1.71-5.041c0.419-1.558,0.81-3.118,1.17-4.68c0.36-1.558,0.658-3.24,0.9-5.039
		c0.238-1.801,0.478-3.781,0.72-5.94H498.592z"/>
	<path fill="#FFFFFF" d="M570.591,74.983c0-10.198,1.647-19.26,4.95-27.18c3.299-7.92,7.889-14.639,13.77-20.16
		c5.878-5.518,12.929-9.72,21.15-12.6c8.218-2.88,17.249-4.32,27.09-4.32c9.838,0,18.899,1.44,27.18,4.32
		c8.28,2.88,15.359,7.082,21.24,12.6c5.878,5.521,10.468,12.24,13.77,20.16c3.3,7.92,4.95,16.982,4.95,27.18
		c0,7.56-0.931,14.552-2.79,20.97c-1.861,6.421-4.53,12.15-8.01,17.189c-3.481,5.041-7.681,9.392-12.6,13.051
		c-4.922,3.662-10.382,6.57-16.381,8.73c3.719,2.879,8.101,6.209,13.141,9.989s10.108,7.589,15.21,11.431
		c5.099,3.838,9.99,7.438,14.67,10.799c4.68,3.359,8.46,6.121,11.34,8.279c-3.122,0.119-6.03,0.51-8.729,1.172
		c-2.7,0.656-5.103,1.467-7.2,2.43c-2.102,0.959-3.87,1.979-5.311,3.059c-1.439,1.08-2.461,2.1-3.06,3.061
		c-3.122-2.879-6.992-6.33-11.61-10.35c-4.621-4.021-9.48-8.189-14.58-12.51c-5.102-4.32-10.11-8.49-15.029-12.51
		c-4.922-4.021-9.121-7.471-12.601-10.35h-3.6c-9.841,0-18.872-1.44-27.09-4.32c-8.222-2.881-15.272-7.079-21.15-12.6
		c-5.881-5.519-10.471-12.269-13.77-20.25C572.238,94.274,570.591,85.184,570.591,74.983z M679.851,74.983
		c0-8.64-1.08-16.079-3.24-22.32c-2.16-6.238-5.13-11.368-8.91-15.39c-3.779-4.019-8.252-7.02-13.409-9
		c-5.161-1.98-10.741-2.97-16.74-2.97c-6.002,0-11.551,0.99-16.65,2.97c-5.102,1.98-9.54,4.981-13.319,9
		c-3.78,4.021-6.75,9.152-8.91,15.39c-2.16,6.241-3.24,13.68-3.24,22.32c0,8.64,1.08,16.11,3.24,22.409
		c2.16,6.301,5.13,11.461,8.91,15.48c3.779,4.021,8.218,7.02,13.319,9c5.1,1.98,10.648,2.971,16.65,2.971
		c5.999,0,11.579-0.99,16.74-2.971c5.157-1.98,9.63-4.979,13.409-9c3.78-4.02,6.75-9.18,8.91-15.48
		C678.771,91.093,679.851,83.623,679.851,74.983z"/>
	<path fill="#FFFFFF" d="M723.768,60.583c0-3.6-0.062-7.47-0.18-11.61c-0.121-4.14-0.242-8.339-0.359-12.6
		c-0.121-4.258-0.302-8.488-0.54-12.69c-0.242-4.199-0.422-8.1-0.54-11.7c2.998,0.602,5.549,1.052,7.649,1.35
		c2.099,0.301,3.749,0.45,4.95,0.45c1.198,0,2.88-0.149,5.04-0.45c2.16-0.298,4.68-0.749,7.56-1.35c-0.12,3.6-0.27,7.501-0.449,11.7
		c-0.181,4.202-0.332,8.432-0.45,12.69c-0.121,4.261-0.242,8.46-0.36,12.6c-0.121,4.14-0.18,8.01-0.18,11.61
		c0,10.921,0.028,20.672,0.09,29.25c0.059,8.581,0.149,16.411,0.27,23.49c0,1.08,0,1.89,0,2.431c0,0.539,0.028,1.051,0.091,1.529
		c0.059,0.48,0.09,0.99,0.09,1.53s0,1.231,0,2.069c3.479,0,6.93-0.027,10.35-0.09c3.42-0.059,7.048-0.208,10.891-0.449
		c3.839-0.24,7.947-0.541,12.329-0.9c4.38-0.359,9.209-0.9,14.49-1.62c-0.841,2.401-1.471,4.53-1.89,6.39
		c-0.422,1.862-0.63,3.092-0.63,3.69c0,0.72,0.208,1.921,0.63,3.601c0.419,1.682,0.99,3.721,1.71,6.119
		c-2.521-0.121-5.372-0.27-8.55-0.449c-3.182-0.181-6.452-0.332-9.811-0.451c-3.36-0.12-6.632-0.211-9.81-0.27
		c-3.181-0.062-6.03-0.09-8.55-0.09c-5.282,0-11.191,0.118-17.73,0.359c-6.542,0.24-12.451,0.479-17.729,0.721
		c0.118-3.6,0.298-7.471,0.54-11.609c0.238-4.141,0.419-8.281,0.54-12.421c0.117-4.14,0.238-8.249,0.359-12.329
		c0.118-4.078,0.18-7.921,0.18-11.521V60.583z"/>
</g>
</svg>
